<?xml version="1.0" encoding="UTF-8" standalone="no"?>
<!-- Created with Inkscape (http://www.inkscape.org/) -->

<svg
   xmlns:dc="http://purl.org/dc/elements/1.1/"
   xmlns:cc="http://creativecommons.org/ns#"
   xmlns:rdf="http://www.w3.org/1999/02/22-rdf-syntax-ns#"
   xmlns:svg="http://www.w3.org/2000/svg"
   xmlns="http://www.w3.org/2000/svg"
   xmlns:sodipodi="http://sodipodi.sourceforge.net/DTD/sodipodi-0.dtd"
   xmlns:inkscape="http://www.inkscape.org/namespaces/inkscape"
   version="1.1"
   id="svg2"
   width="256"
   height="256"
   viewBox="0 0 256 256"
   sodipodi:docname="ornamentos.svg"
   inkscape:version="0.92.3 (2405546, 2018-03-11)"
   inkscape:export-filename="/home/senac/Documentos/weMarried/imgs/ornamentos.svg.png"
   inkscape:export-xdpi="378.375"
   inkscape:export-ydpi="378.375">
  <metadata
     id="metadata8">
    <rdf:RDF>
      <cc:Work
         rdf:about="">
        <dc:format>image/svg+xml</dc:format>
        <dc:type
           rdf:resource="http://purl.org/dc/dcmitype/StillImage" />
        <dc:title></dc:title>
      </cc:Work>
    </rdf:RDF>
  </metadata>
  <defs
     id="defs6" />
  <sodipodi:namedview
     pagecolor="#ffffff"
     bordercolor="#666666"
     borderopacity="1"
     objecttolerance="10"
     gridtolerance="10"
     guidetolerance="10"
     inkscape:pageopacity="0"
     inkscape:pageshadow="2"
     inkscape:window-width="1366"
     inkscape:window-height="704"
     id="namedview4"
     showgrid="false"
     inkscape:zoom="1.84375"
     inkscape:cx="113.77486"
     inkscape:cy="158.06921"
     inkscape:window-x="0"
     inkscape:window-y="27"
     inkscape:window-maximized="1"
     inkscape:current-layer="svg2" />
  <path
     style="fill:#000000;stroke-width:0.29736996"
     d="m 123.66783,120.01485 c -2.9854,-1.76106 -2.42014,-7.29642 0.74509,-7.29642 1.4311,0 2.26107,0.8324 2.26107,2.26768 0,2.03652 -2.40442,2.70192 -2.83728,0.78519 -0.204,-0.90338 0.24958,-1.16309 0.62242,-0.35637 0.3566,0.77158 1.25755,0.85766 1.49445,0.14279 0.25121,-0.75809 0.20974,-0.99948 -0.26652,-1.55097 -0.66881,-0.77449 -1.97316,-0.62418 -2.78979,0.32147 -0.59935,0.69404 -0.68842,1.0267 -0.56354,2.10483 0.17328,1.49594 0.80434,2.42375 2.07056,3.04419 1.06794,0.52328 2.73156,0.14687 3.45775,-0.78235 0.40104,-0.51316 0.40551,-0.71049 0.0436,-1.92695 -0.38769,-1.30307 -0.29994,-2.6661 0.27499,-4.27125 0.56355,-1.5734 -5.31606,-4.21711 -7.02433,-3.15843 -0.44918,0.27837 -0.70468,0.28814 -0.92305,0.0353 -0.40535,-0.4694 -72.203993,-0.49878 -72.454375,-0.0296 -0.28767,0.53901 -0.930766,0.35674 -1.260785,-0.35733 -0.249786,-0.54047 -0.222929,-0.78168 0.132911,-1.19375 0.366255,-0.42411 0.543268,-0.44603 0.990421,-0.12266 0.743528,0.5377 71.586988,0.57786 72.453138,0.0411 0.4239,-0.26271 0.73352,-0.25075 1.21375,0.0469 1.18213,0.73261 5.41481,-0.72586 6.63401,-2.28589 0.35327,-0.45205 0.3725,-0.68771 0.10354,-1.26965 -0.41551,-0.89905 -0.4292,-3.50866 -0.0231,-4.387528 0.44409,-0.96089 0.13796,-1.55296 -1.0994,-2.12627 -1.36068,-0.63045 -1.73354,-0.63047 -2.88063,-1.4e-4 -2.48805,1.3672 -2.15076,5.895268 0.43914,5.895268 0.94016,0 1.74861,-1.01737 1.5075,-1.89707 -0.21697,-0.7916 -1.11939,-0.87598 -1.47604,-0.138 -0.37383,0.77354 -0.9579,0.24341 -0.59557,-0.54057 0.41957,-0.90784 1.55821,-1.140578 2.21463,-0.45269 1.01142,1.05994 0.57494,3.04914 -0.78997,3.60012 -2.65919,1.07346 -4.6866,-2.58516 -3.10112,-5.596248 1.08622,-2.06291 3.77879,-2.68308 5.56852,-1.28257 l 0.93667,0.73297 1.10536,-0.7277 c 2.78786,-1.83537 5.98768,0.0572 6.05339,3.580418 0.0212,1.13511 -0.12702,1.58413 -0.78554,2.38019 -1.54075,1.86254 -4.30066,1.06633 -4.30066,-1.24072 0,-1.00033 0.82894,-1.93814 1.71315,-1.93814 0.52258,0 1.5173,1.48582 1.22294,1.8267 -0.0982,0.1137 -0.42681,-0.10188 -0.73026,-0.47906 -0.97628,-1.21348 -2.03901,0.003 -1.23854,1.41745 0.93969,1.66073 3.45415,0.34573 3.45415,-1.80644 0,-3.189938 -3.12764,-4.880958 -5.32526,-2.879198 -0.67494,0.61478 -0.67819,0.64149 -0.25818,2.118858 0.35142,1.2361 0.36725,1.72445 0.0911,2.80896 -0.54064,2.12292 -0.51791,2.19747 0.99204,3.25307 1.9128,1.33724 4.44599,1.97593 5.61432,1.41553 0.63902,-0.30651 0.92997,-0.317 1.16739,-0.0421 0.4649,0.53835 71.56707,0.52404 72.31182,-0.0146 0.41289,-0.29859 0.62077,-0.29014 0.96344,0.0392 0.24033,0.23096 0.43695,0.60066 0.43695,0.82156 0,0.2209 -0.19662,0.59061 -0.43695,0.82157 -0.34267,0.32932 -0.55055,0.33777 -0.96344,0.0392 -0.67209,-0.48605 -71.58175,-0.55698 -72.36367,-0.0724 -0.3318,0.20562 -0.78795,0.18143 -1.36921,-0.0726 -1.1457,-0.50079 -4.12407,0.35438 -5.69626,1.63554 -1.16564,0.94987 -1.18547,1.04415 -0.65643,3.12146 0.27614,1.08433 0.26036,1.57284 -0.0907,2.80765 -0.42396,1.49124 -0.42322,1.49637 0.29923,2.08061 1.23055,0.99515 2.17434,1.09521 3.47151,0.36805 0.64606,-0.36217 1.31813,-1.02314 1.4935,-1.46882 0.8076,-2.05254 -0.0971,-4.30021 -1.73095,-4.30021 -1.55889,0 -2.39947,1.87934 -1.09904,2.45721 0.29414,0.1307 0.62583,-0.0578 0.93392,-0.53079 0.56073,-0.86083 1.02141,-0.37157 0.56994,0.6053 -0.68063,1.47268 -2.77648,0.86869 -2.77648,-0.80013 0,-1.93917 1.45649,-3.02947 3.17145,-2.37406 1.26091,0.48188 1.89479,1.60038 1.89479,3.3434 0,3.52298 -3.4491,5.54927 -6.01439,3.53337 l -1.02527,-0.80569 -0.84481,0.6966 c -1.12419,0.92696 -3.1151,1.10421 -4.33304,0.38575 z m 5.49323,-4.91096 c 0,-1.58036 -0.35508,-2.33785 -0.6619,-1.41199 -0.385,1.16181 -0.077,3.50306 0.41451,3.15127 0.13607,-0.0974 0.24739,-0.88005 0.24739,-1.73928 z m 0.43328,-4.50043 c 0.3339,-0.36323 1.31547,-0.99382 2.18128,-1.40131 l 1.57418,-0.74088 -1.32903,-0.52439 c -0.73097,-0.28842 -1.7823,-0.9462 -2.33629,-1.46174 l -1.00727,-0.93735 -0.63915,0.78784 c -0.35154,0.43331 -1.36491,1.09427 -2.25196,1.4688 l -1.61279,0.68097 1.57817,0.74275 c 0.86799,0.40852 1.83134,1.03593 2.14077,1.39425 0.70492,0.81629 0.94469,0.81503 1.70209,-0.009 z m -1.03067,-0.57623 c -0.0514,-0.15732 -0.5287,-0.59089 -1.06065,-0.96349 -0.53196,-0.3726 -0.8213,-0.678 -0.64297,-0.67865 0.17833,-6.4e-4 0.6975,-0.36492 1.15373,-0.80946 0.54704,-0.53304 0.89387,-0.68765 1.01854,-0.45406 0.10397,0.19481 0.57962,0.62998 1.057,0.96706 0.47737,0.33708 0.72205,0.61341 0.54372,0.61406 -0.17832,6.4e-4 -0.69585,0.36331 -1.15006,0.80589 -0.45421,0.44258 -0.8679,0.67598 -0.91931,0.51865 z m 0.59316,-7.98223 c -0.005,-1.80109 -0.38228,-2.742268 -0.64452,-1.60816 -0.36249,1.56771 -0.10806,3.65091 0.40136,3.28633 0.13607,-0.0974 0.24549,-0.85255 0.24316,-1.67817 z m -96.948873,13.61991 c -0.504727,-0.58447 -0.371531,-2.46644 0.258059,-3.64608 0.731481,-1.37056 2.444437,-2.53769 4.549338,-3.09971 l 1.644268,-0.43903 -1.243532,-0.23158 c -3.042126,-0.56651 -5.526805,-2.95686 -5.526805,-5.31697 0,-0.67654 0.182082,-1.36427 0.422317,-1.59516 0.358007,-0.34405 0.74731,-0.0413 2.556147,1.98791 2.053191,2.30332 3.878997,3.77573 5.288281,4.2647 0.610427,0.2118 0.577517,0.10455 -0.385495,-1.25635 l -1.052891,-1.48793 1.441633,1.12343 c 0.792898,0.61788 2.378297,1.46539 3.523105,1.88336 l 2.081464,0.75994 -1.065049,0.20158 c -1.183255,0.22395 -4.389631,1.89799 -5.14107,2.68413 -0.841378,0.88024 -0.522239,0.003 0.399632,-1.09802 0.48578,-0.58039 0.720799,-1.05524 0.522274,-1.05524 -0.887095,0 -3.768737,2.18891 -5.344516,4.05973 -2.039659,2.42156 -2.488997,2.76868 -2.92716,2.26129 z M 222.80266,113.7756 c -1.85646,-2.14454 -4.84519,-4.43171 -5.79108,-4.43171 -0.19955,0 0.12289,0.576 0.71654,1.28 0.59364,0.704 0.9371,1.28 0.76324,1.28 -0.17386,0 -0.39443,-0.14674 -0.49015,-0.32609 -0.26011,-0.48734 -2.8357,-1.94734 -4.49956,-2.55061 l -1.46307,-0.53046 1.60124,-0.51975 c 0.88068,-0.28585 2.31626,-1.02073 3.19019,-1.63307 0.87393,-0.61233 1.58896,-1.02269 1.58896,-0.91191 0,0.11078 -0.40415,0.69284 -0.89811,1.29346 -0.86393,1.05048 -0.87181,1.08318 -0.20726,0.85902 1.58164,-0.53348 3.4554,-2.01481 5.40654,-4.27422 1.91126,-2.21322 2.10881,-2.36079 2.52124,-1.88321 0.24612,0.28501 0.43697,0.94675 0.42411,1.47054 -0.0586,2.38967 -1.85734,4.26602 -4.99973,5.21568 -1.00776,0.30455 -1.51246,0.56203 -1.12157,0.57217 1.09422,0.0284 3.33464,0.97888 4.33279,1.83814 1.59118,1.36979 2.31471,4.0367 1.38668,5.11134 -0.3827,0.44317 -0.62864,0.25736 -2.461,-1.85932 z M 26.224309,111.40307 c -0.455961,-0.27328 -1.286675,-1.0118 -1.846022,-1.64117 l -1.017001,-1.1443 0.602491,-0.94813 c 0.725186,-1.14122 2.617771,-2.48558 3.499176,-2.48558 0.35058,0 1.866531,0.65242 3.368795,1.44983 1.502263,0.79741 3.116764,1.53909 3.587795,1.64817 0.837233,0.1939 0.823131,0.21062 -0.629676,0.7466 -0.817337,0.30153 -2.415214,1.07185 -3.550826,1.71182 -2.301448,1.29696 -2.815104,1.38176 -4.014732,0.66276 z m 5.688732,-2.15996 1.819969,-0.73798 -1.733586,-0.70062 c -2.234548,-0.90308 -3.206731,-0.88855 -4.161201,0.0622 l -0.765791,0.76278 0.95764,0.67602 c 1.208704,0.85326 1.6421,0.8463 3.882969,-0.0624 z M 228.9199,111.6066 c -0.37997,-0.14604 -1.31262,-0.64269 -2.07256,-1.10367 -0.75993,-0.46098 -2.03577,-1.10313 -2.83519,-1.427 l -1.45349,-0.58886 1.11433,-0.38661 c 0.61288,-0.21263 2.13084,-0.95585 3.37325,-1.65159 1.24241,-0.69574 2.55026,-1.26498 2.90632,-1.26498 0.89313,0 2.54197,1.03124 3.48265,2.17816 0.75434,0.91973 0.76721,0.98771 0.33232,1.7563 -1.04227,1.84202 -3.39155,3.04788 -4.84763,2.48825 z m 0.87342,-2.46924 c 0.55231,-0.57881 0.55172,-0.58324 -0.17503,-1.30712 -0.90895,-0.90538 -1.68271,-0.91147 -4.04133,-0.0318 l -1.86228,0.69454 1.7045,0.73056 c 1.93863,0.8309 3.52894,0.79956 4.37414,-0.0862 z m -209.773912,0.0643 c -0.746309,-1.04132 0.488768,-2.29418 1.316606,-1.33555 0.351928,0.40753 0.387973,0.65758 0.15621,1.08375 -0.403509,0.74198 -1.043133,0.85133 -1.472816,0.2518 z m 216.098092,0 c -0.74631,-1.04132 0.48877,-2.29418 1.3166,-1.33555 0.35193,0.40753 0.38798,0.65758 0.15621,1.08375 -0.4035,0.74198 -1.04313,0.85133 -1.47281,0.2518 z M 129.47397,95.763222 c -258.15207,62.807318 -129.07602631,31.403658 0,0 z"
     id="path12"
     inkscape:connector-curvature="0"
     sodipodi:nodetypes="cssccccsscccscccccscccccscscccccscccccsscccscsccccccsccccccccccscccscscccccsccsccccccccccscccscccccccccccscsccscccccccccccscscssscccccsccscccccccccccssccccccscccccscccsscscccccccccssccscccc" />
</svg>
